<svg xmlns="http://www.w3.org/2000/svg" viewBox="0 0 160 160" width="160" height="160"><rect width="160" height="160" rx="36" fill="#490086"></rect><rect x="22" y="67" width="116" height="34" rx="17" fill="#fff" opacity="0.18"></rect><circle cx="45" cy="52" r="11" fill="none" stroke="#fff" stroke-width="5" opacity="0.82"></circle><rect x="66" y="45.5" width="58" height="13" rx="6.5" fill="#fff" opacity="0.45"></rect><circle cx="45" cy="84" r="13.5" fill="#fff"></circle><circle cx="45" cy="84" r="6" fill="#490086"></circle><rect x="66" y="77.5" width="58" height="13" rx="6.5" fill="#fff"></rect><circle cx="45" cy="116" r="11" fill="none" stroke="#fff" stroke-width="5" opacity="0.82"></circle><rect x="66" y="109.5" width="58" height="13" rx="6.5" fill="#fff" opacity="0.45"></rect><circle cx="124" cy="124" r="27" fill="#490086"></circle><circle cx="124" cy="124" r="21" fill="#fff"></circle><path d="M124 110 L127.53 119.15 L137.32 119.67 L129.71 125.85 L132.23 135.33 L124 130 L115.77 135.33 L118.29 125.85 L110.68 119.67 L120.47 119.15 Z" fill="#490086"></path></svg>