<svg xmlns="http://www.w3.org/2000/svg" viewBox="-14 -14 288.9 284.48" width="288.9" height="284.48"><svg x="35.45" y="0" width="190" height="190" viewBox="0 0 160 160" overflow="visible"><rect width="160" height="160" rx="36" fill="#490086"></rect><rect x="22" y="67" width="116" height="34" rx="17" fill="#fff" opacity="0.18"></rect><circle cx="45" cy="52" r="11" fill="none" stroke="#fff" stroke-width="5" opacity="0.82"></circle><rect x="66" y="45.5" width="58" height="13" rx="6.5" fill="#fff" opacity="0.45"></rect><circle cx="45" cy="84" r="13.5" fill="#fff"></circle><circle cx="45" cy="84" r="6" fill="#490086"></circle><rect x="66" y="77.5" width="58" height="13" rx="6.5" fill="#fff"></rect><circle cx="45" cy="116" r="11" fill="none" stroke="#fff" stroke-width="5" opacity="0.82"></circle><rect x="66" y="109.5" width="58" height="13" rx="6.5" fill="#fff" opacity="0.45"></rect><circle cx="124" cy="124" r="27" fill="#490086"></circle><circle cx="124" cy="124" r="21" fill="#fff"></circle><path d="M124 110 L127.53 119.15 L137.32 119.67 L129.71 125.85 L132.23 135.33 L124 130 L115.77 135.33 L118.29 125.85 L110.68 119.67 L120.47 119.15 Z" fill="#490086"></path></svg><g transform="translate(0,248.25)"><path d="M10.61 0.66Q6.36 0.66 4 -1.15Q1.64 -2.96 1.52 -6.12L5.73 -6.12Q5.81 -4.95 6.94 -3.98Q8.07 -3 10.65 -3Q12.83 -3 14.08 -3.86Q15.33 -4.72 15.33 -6.01Q15.33 -7.18 14.39 -7.86Q13.46 -8.54 11.31 -8.74L9.24 -8.97Q6.01 -9.32 4.11 -10.86Q2.22 -12.4 2.22 -15.09Q2.22 -17.2 3.28 -18.64Q4.33 -20.08 6.18 -20.86Q8.03 -21.64 10.45 -21.64Q14.2 -21.64 16.5 -19.99Q18.8 -18.33 18.88 -15.13L14.66 -15.13Q14.63 -16.3 13.55 -17.14Q12.48 -17.98 10.45 -17.98Q8.5 -17.98 7.47 -17.2Q6.44 -16.42 6.44 -15.21Q6.44 -14.12 7.22 -13.49Q8 -12.87 9.75 -12.67L11.82 -12.48Q15.37 -12.09 17.45 -10.51Q19.54 -8.93 19.54 -6.12Q19.54 -4.09 18.41 -2.57Q17.28 -1.05 15.27 -0.19Q13.26 0.66 10.61 0.66Z M32.35 0.27Q29.74 0.27 27.94 -0.45Q26.15 -1.17 25.21 -2.89Q24.28 -4.6 24.28 -7.53L24.32 -27.14L28.65 -27.14L28.65 -7.14Q28.65 -5.5 29.52 -4.62Q30.4 -3.74 32 -3.74L35.51 -3.74L35.51 0.27ZM20.81 -17.59L20.81 -21.02L35.51 -21.02L35.51 -17.59Z M52.26 0L52.26 -6.28L51.52 -6.28L51.52 -13.34Q51.52 -15.33 50.51 -16.32Q49.49 -17.32 47.5 -17.32Q46.41 -17.32 45.08 -17.28Q43.76 -17.24 42.47 -17.2Q41.18 -17.16 40.21 -17.08L40.21 -21.02Q41.11 -21.1 42.14 -21.16Q43.17 -21.22 44.28 -21.25Q45.4 -21.29 46.41 -21.29Q49.61 -21.29 51.71 -20.48Q53.82 -19.66 54.85 -17.88Q55.89 -16.11 55.89 -13.14L55.89 0ZM45.44 0.55Q43.13 0.55 41.42 -0.25Q39.7 -1.05 38.77 -2.59Q37.83 -4.13 37.83 -6.28Q37.83 -8.54 38.9 -10.02Q39.98 -11.5 41.96 -12.25Q43.95 -12.99 46.72 -12.99L51.99 -12.99L51.99 -9.98L46.61 -9.98Q44.54 -9.98 43.45 -8.99Q42.35 -7.99 42.35 -6.4Q42.35 -4.8 43.45 -3.84Q44.54 -2.89 46.61 -2.89Q47.81 -2.89 48.91 -3.33Q50 -3.78 50.72 -4.84Q51.44 -5.89 51.52 -7.8L52.69 -6.28Q52.49 -4.06 51.62 -2.55Q50.74 -1.05 49.2 -0.25Q47.66 0.55 45.44 0.55Z M61.43 0L61.43 -21.02L65.1 -21.02L65.1 -12.21L64.94 -12.21Q64.94 -16.77 66.93 -19.01Q68.92 -21.25 72.82 -21.25L73.56 -21.25L73.56 -17.2L72.16 -17.2Q69.2 -17.2 67.62 -15.64Q66.04 -14.08 66.04 -11.15L66.04 0Z M77.05 0L77.05 -28.47L81.66 -28.47L81.66 0ZM74.29 -24.96L74.29 -28.47L81.66 -28.47L81.66 -24.96Z M88.58 0L88.58 -21.02L93.14 -21.02L93.14 0ZM85.5 -17.51L85.5 -21.02L93.14 -21.02L93.14 -17.51ZM90.06 -23.95Q88.66 -23.95 87.97 -24.69Q87.29 -25.43 87.29 -26.6Q87.29 -27.73 87.97 -28.49Q88.66 -29.25 90.06 -29.25Q91.5 -29.25 92.19 -28.49Q92.87 -27.73 92.87 -26.6Q92.87 -25.43 92.19 -24.69Q91.5 -23.95 90.06 -23.95Z M107.16 8.23Q105.68 8.23 104.16 8.11Q102.64 8 101.31 7.8L101.31 3.94Q102.72 4.13 104.28 4.27Q105.84 4.41 107.24 4.41Q109.97 4.41 111.63 3.71Q113.29 3 114.05 1.54Q114.81 0.08 114.81 -2.22L114.81 -6.32L116.02 -9.13Q115.9 -6.08 114.75 -4.02Q113.6 -1.95 111.69 -0.9Q109.78 0.16 107.4 0.16Q105.21 0.16 103.42 -0.66Q101.62 -1.48 100.34 -2.94Q99.05 -4.41 98.33 -6.36Q97.61 -8.31 97.61 -10.49L97.61 -11.23Q97.61 -13.45 98.35 -15.37Q99.09 -17.28 100.42 -18.7Q101.74 -20.12 103.57 -20.9Q105.41 -21.68 107.63 -21.68Q110.24 -21.68 112.21 -20.57Q114.18 -19.46 115.29 -17.32Q116.41 -15.17 116.52 -12.09L115.51 -11.97L115.51 -21.02L119.14 -21.02L119.14 -2.5Q119.14 1.33 117.91 3.69Q116.68 6.05 114.05 7.14Q111.41 8.23 107.16 8.23ZM108.53 -3.9Q110.24 -3.9 111.65 -4.66Q113.05 -5.42 113.91 -6.84Q114.77 -8.27 114.77 -10.26L114.77 -11.86Q114.77 -13.81 113.89 -15.15Q113.01 -16.5 111.61 -17.18Q110.2 -17.86 108.57 -17.86Q106.69 -17.86 105.25 -17Q103.81 -16.15 103.01 -14.57Q102.21 -12.99 102.21 -10.88Q102.21 -8.74 103.03 -7.16Q103.85 -5.58 105.27 -4.74Q106.69 -3.9 108.53 -3.9Z M124.78 0L124.78 -28.47L129.38 -28.47L129.38 -11.66L128.45 -11.66Q128.45 -14.78 129.25 -17.02Q130.05 -19.27 131.7 -20.46Q133.36 -21.64 135.9 -21.64L136.09 -21.64Q139.8 -21.64 141.69 -19.15Q143.58 -16.65 143.58 -11.97L143.58 0L138.98 0L138.98 -12.64Q138.98 -14.9 137.69 -16.18Q136.4 -17.47 134.34 -17.47Q132.11 -17.47 130.75 -15.99Q129.38 -14.51 129.38 -12.13L129.38 0Z M157.77 0.27Q155.16 0.27 153.37 -0.45Q151.57 -1.17 150.64 -2.89Q149.7 -4.6 149.7 -7.53L149.74 -27.14L154.07 -27.14L154.07 -7.14Q154.07 -5.5 154.95 -4.62Q155.82 -3.74 157.42 -3.74L160.93 -3.74L160.93 0.27ZM146.23 -17.59L146.23 -21.02L160.93 -21.02L160.93 -17.59Z M163.25 -8.93L163.25 -12.91L178.43 -12.91L178.43 -8.93Z " fill="#490086"></path><path d="M199.08 7.8L199.08 -6.24L200.6 -8.97Q200.52 -5.73 199.33 -3.59Q198.14 -1.44 196.19 -0.37Q194.24 0.7 191.82 0.7Q189.6 0.7 187.75 -0.16Q185.89 -1.01 184.57 -2.52Q183.24 -4.02 182.52 -5.99Q181.8 -7.96 181.8 -10.22L181.8 -10.96Q181.8 -13.22 182.52 -15.15Q183.24 -17.08 184.61 -18.56Q185.97 -20.05 187.84 -20.86Q189.72 -21.68 191.98 -21.68Q194.63 -21.68 196.62 -20.55Q198.61 -19.42 199.76 -17.26Q200.91 -15.09 200.99 -12.01L200.01 -12.01L200.01 -21.02L203.64 -21.02L203.64 7.8ZM192.87 -3.35Q194.63 -3.35 196.05 -4.13Q197.48 -4.91 198.35 -6.42Q199.23 -7.92 199.23 -9.94L199.23 -11.62Q199.23 -13.61 198.33 -15.01Q197.44 -16.42 195.99 -17.16Q194.55 -17.9 192.87 -17.9Q190.92 -17.9 189.46 -16.98Q188 -16.07 187.18 -14.41Q186.36 -12.75 186.36 -10.57Q186.36 -8.42 187.2 -6.79Q188.04 -5.15 189.5 -4.25Q190.96 -3.35 192.87 -3.35Z M216.73 0.66Q213.07 0.66 211.06 -1.75Q209.05 -4.17 209.05 -8.85L209.05 -21.02L213.65 -21.02L213.65 -8.23Q213.65 -6.04 214.86 -4.78Q216.07 -3.51 218.14 -3.51Q220.24 -3.51 221.57 -4.86Q222.89 -6.2 222.89 -8.54L222.89 -21.02L227.5 -21.02L227.5 0L223.87 0L223.87 -8.97L224.3 -8.97Q224.3 -5.81 223.48 -3.69Q222.66 -1.56 221.04 -0.45Q219.42 0.66 216.93 0.66Z M234.5 0L234.5 -21.02L239.06 -21.02L239.06 0ZM231.42 -17.51L231.42 -21.02L239.06 -21.02L239.06 -17.51ZM235.98 -23.95Q234.58 -23.95 233.89 -24.69Q233.21 -25.43 233.21 -26.6Q233.21 -27.73 233.89 -28.49Q234.58 -29.25 235.98 -29.25Q237.42 -29.25 238.1 -28.49Q238.79 -27.73 238.79 -26.6Q238.79 -25.43 238.1 -24.69Q237.42 -23.95 235.98 -23.95Z M243.68 0L243.68 -4.25L254.56 -17.32L254.56 -16.69L253.86 -17.71L254.45 -17.43L243.56 -17.43L243.56 -21.02L259.09 -21.02L259.09 -16.77L248.17 -3.7L248.17 -4.25L248.95 -3.2L248.36 -3.59L259.59 -3.59L259.59 0Z " fill="#13161f"></path></g></svg>