<svg xmlns="http://www.w3.org/2000/svg" viewBox="-16 -16 306.28 302.4" width="306.28" height="302.4"><svg x="37.14" y="0" width="200" height="200" viewBox="0 0 160 160" overflow="visible"><rect width="160" height="160" rx="36" fill="#490086"></rect><g transform="translate(-14.4,-15.12) scale(1.18)"><rect x="22" y="67" width="116" height="34" rx="17" fill="#fff" opacity=".18"></rect><circle cx="45" cy="52" r="11" fill="none" stroke="#fff" stroke-width="5" opacity=".82"></circle><rect x="66" y="45.5" width="58" height="13" rx="6.5" fill="#fff" opacity=".45"></rect><circle cx="45" cy="84" r="13.5" fill="#fff"></circle><circle cx="45" cy="84" r="6" fill="#490086"></circle><rect x="66" y="77.5" width="58" height="13" rx="6.5" fill="#fff"></rect><circle cx="45" cy="116" r="11" fill="none" stroke="#fff" stroke-width="5" opacity=".82"></circle><rect x="66" y="109.5" width="58" height="13" rx="6.5" fill="#fff" opacity=".45"></rect></g><circle cx="117.5" cy="117.5" r="42.12" fill="#490086"></circle><circle cx="117.5" cy="117.5" r="32.76" fill="#fff"></circle><g transform="translate(97.24,95.82) scale(1.6796)" fill="#490086"><path fill-rule="evenodd" clip-rule="evenodd" d="M15.22 7.77 12.06.94 8.91 7.77l-.15.29L7 6.3a1.18 1.18 0 1 0-1.68 1.68l1.75 1.74-.2.1-.04.02L0 13l6.83 3.16.24.11-1.75 1.76A1.18 1.18 0 1 0 7 19.7l1.76-1.76.15.3 3.15 6.82 3.16-6.83.12-.24 1.71 1.71a1.18 1.18 0 1 0 1.68-1.67L17 16.3l.29-.15L24.13 13 17.3 9.84 17 9.7l1.73-1.73a1.18 1.18 0 1 0-1.68-1.67L15.35 8a4.15 4.15 0 0 1-.12-.21l-.01-.03Zm-3.17.36-.42.9a7.27 7.27 0 0 1-3.55 3.55l-.9.42.9.42a7.27 7.27 0 0 1 3.55 3.55l.42.9.42-.9a7.27 7.27 0 0 1 3.55-3.55l.9-.42-.9-.42a7.27 7.27 0 0 1-3.55-3.55l-.42-.9Z"></path><path d="M22.27 4.43a1.18 1.18 0 1 0-1.67-1.68l-.57.57a1.18 1.18 0 0 0 1.68 1.67l.56-.56ZM4.2 5.18c-.46.46-1.2.46-1.67 0l-.56-.56a1.18 1.18 0 0 1 1.67-1.68l.57.57c.46.46.46 1.2 0 1.67Zm0 15.64a1.18 1.18 0 0 0-1.67 0l-.56.56a1.18 1.18 0 0 0 1.67 1.68l.57-.57c.46-.46.46-1.2 0-1.67Zm18.07.75a1.18 1.18 0 0 1-1.67 1.68l-.57-.57a1.19 1.19 0 0 1 1.68-1.67l.56.56Z"></path></g></svg><g transform="translate(0,261.75)"><path d="M11.15 0.7Q6.68 0.7 4.2 -1.21Q1.72 -3.12 1.6 -6.44L6.03 -6.44Q6.11 -5.21 7.3 -4.18Q8.49 -3.16 11.19 -3.16Q13.49 -3.16 14.8 -4.06Q16.11 -4.96 16.11 -6.31Q16.11 -7.54 15.13 -8.26Q14.15 -8.98 11.89 -9.18L9.72 -9.43Q6.31 -9.8 4.33 -11.42Q2.34 -13.04 2.34 -15.87Q2.34 -18.08 3.44 -19.6Q4.55 -21.11 6.5 -21.93Q8.45 -22.76 10.99 -22.76Q14.92 -22.76 17.34 -21.01Q19.76 -19.27 19.84 -15.91L15.42 -15.91Q15.38 -17.14 14.25 -18.02Q13.12 -18.9 10.99 -18.9Q8.94 -18.9 7.85 -18.08Q6.77 -17.26 6.77 -15.99Q6.77 -14.84 7.59 -14.19Q8.41 -13.53 10.25 -13.32L12.42 -13.12Q16.15 -12.71 18.35 -11.05Q20.54 -9.39 20.54 -6.44Q20.54 -4.31 19.35 -2.71Q18.16 -1.11 16.05 -0.2Q13.94 0.7 11.15 0.7Z M34.01 0.29Q31.26 0.29 29.38 -0.47Q27.49 -1.23 26.51 -3.03Q25.52 -4.84 25.52 -7.91L25.56 -28.54L30.11 -28.54L30.11 -7.5Q30.11 -5.78 31.04 -4.86Q31.96 -3.94 33.64 -3.94L37.33 -3.94L37.33 0.29ZM21.87 -18.49L21.87 -22.1L37.33 -22.1L37.33 -18.49Z M54.94 0L54.94 -6.6L54.16 -6.6L54.16 -14.02Q54.16 -16.11 53.1 -17.16Q52.03 -18.2 49.94 -18.2Q48.79 -18.2 47.4 -18.16Q46 -18.12 44.65 -18.08Q43.3 -18.04 42.27 -17.96L42.27 -22.1Q43.21 -22.18 44.3 -22.24Q45.39 -22.3 46.56 -22.35Q47.72 -22.39 48.79 -22.39Q52.15 -22.39 54.37 -21.52Q56.58 -20.66 57.67 -18.8Q58.75 -16.93 58.75 -13.82L58.75 0ZM47.77 0.57Q45.35 0.57 43.54 -0.27Q41.74 -1.11 40.75 -2.73Q39.77 -4.35 39.77 -6.6Q39.77 -8.98 40.9 -10.54Q42.03 -12.09 44.12 -12.87Q46.21 -13.65 49.12 -13.65L54.65 -13.65L54.65 -10.5L49 -10.5Q46.82 -10.5 45.67 -9.45Q44.53 -8.41 44.53 -6.72Q44.53 -5.04 45.67 -4.04Q46.82 -3.03 49 -3.03Q50.27 -3.03 51.41 -3.51Q52.56 -3.98 53.32 -5.08Q54.08 -6.19 54.16 -8.2L55.39 -6.6Q55.19 -4.26 54.26 -2.69Q53.34 -1.11 51.72 -0.27Q50.1 0.57 47.77 0.57Z M64.59 0L64.59 -22.1L68.44 -22.1L68.44 -12.83L68.28 -12.83Q68.28 -17.63 70.37 -19.99Q72.46 -22.35 76.56 -22.35L77.34 -22.35L77.34 -18.08L75.86 -18.08Q72.74 -18.08 71.08 -16.44Q69.42 -14.8 69.42 -11.73L69.42 0Z M81.01 0L81.01 -29.93L85.84 -29.93L85.84 0ZM78.09 -26.24L78.09 -29.93L85.84 -29.93L85.84 -26.24Z M93.12 0L93.12 -22.1L97.92 -22.1L97.92 0ZM89.88 -18.41L89.88 -22.1L97.92 -22.1L97.92 -18.41ZM94.68 -25.17Q93.2 -25.17 92.49 -25.95Q91.77 -26.73 91.77 -27.96Q91.77 -29.15 92.49 -29.95Q93.2 -30.75 94.68 -30.75Q96.2 -30.75 96.91 -29.95Q97.63 -29.15 97.63 -27.96Q97.63 -26.73 96.91 -25.95Q96.2 -25.17 94.68 -25.17Z M112.66 8.65Q111.1 8.65 109.5 8.53Q107.9 8.41 106.51 8.2L106.51 4.14Q107.98 4.35 109.62 4.49Q111.26 4.63 112.74 4.63Q115.61 4.63 117.35 3.9Q119.09 3.16 119.89 1.62Q120.69 0.08 120.69 -2.34L120.69 -6.64L121.96 -9.59Q121.84 -6.4 120.63 -4.22Q119.42 -2.05 117.41 -0.94Q115.4 0.16 112.9 0.16Q110.61 0.16 108.72 -0.7Q106.84 -1.56 105.48 -3.1Q104.13 -4.63 103.37 -6.68Q102.61 -8.73 102.61 -11.03L102.61 -11.81Q102.61 -14.15 103.39 -16.15Q104.17 -18.16 105.56 -19.66Q106.96 -21.16 108.89 -21.98Q110.81 -22.8 113.15 -22.8Q115.9 -22.8 117.97 -21.63Q120.04 -20.46 121.21 -18.2Q122.37 -15.95 122.5 -12.71L121.43 -12.59L121.43 -22.1L125.24 -22.1L125.24 -2.62Q125.24 1.39 123.95 3.87Q122.66 6.36 119.89 7.5Q117.13 8.65 112.66 8.65ZM114.09 -4.1Q115.9 -4.1 117.37 -4.9Q118.85 -5.7 119.75 -7.2Q120.65 -8.69 120.65 -10.78L120.65 -12.46Q120.65 -14.51 119.73 -15.93Q118.81 -17.34 117.33 -18.06Q115.86 -18.78 114.13 -18.78Q112.17 -18.78 110.65 -17.88Q109.13 -16.97 108.29 -15.31Q107.45 -13.65 107.45 -11.44Q107.45 -9.18 108.31 -7.52Q109.17 -5.86 110.67 -4.98Q112.17 -4.1 114.09 -4.1Z M131.18 0L131.18 -29.93L136.02 -29.93L136.02 -12.26L135.03 -12.26Q135.03 -15.54 135.87 -17.9Q136.71 -20.25 138.46 -21.5Q140.2 -22.76 142.86 -22.76L143.07 -22.76Q146.96 -22.76 148.95 -20.13Q150.94 -17.51 150.94 -12.59L150.94 0L146.1 0L146.1 -13.28Q146.1 -15.66 144.75 -17.01Q143.4 -18.37 141.22 -18.37Q138.89 -18.37 137.45 -16.81Q136.02 -15.25 136.02 -12.75L136.02 0Z M165.87 0.29Q163.12 0.29 161.23 -0.47Q159.35 -1.23 158.36 -3.03Q157.38 -4.84 157.38 -7.91L157.42 -28.54L161.97 -28.54L161.97 -7.5Q161.97 -5.78 162.89 -4.86Q163.82 -3.94 165.5 -3.94L169.19 -3.94L169.19 0.29ZM153.73 -18.49L153.73 -22.1L169.19 -22.1L169.19 -18.49Z M171.63 -9.39L171.63 -13.57L187.58 -13.57L187.58 -9.39Z " fill="#C49BEC"></path><path d="M209.28 8.2L209.28 -6.56L210.88 -9.43Q210.8 -6.03 209.55 -3.77Q208.3 -1.52 206.25 -0.39Q204.2 0.74 201.66 0.74Q199.32 0.74 197.37 -0.16Q195.43 -1.07 194.03 -2.64Q192.64 -4.22 191.88 -6.29Q191.12 -8.36 191.12 -10.74L191.12 -11.52Q191.12 -13.9 191.88 -15.93Q192.64 -17.96 194.07 -19.52Q195.51 -21.07 197.48 -21.93Q199.44 -22.8 201.82 -22.8Q204.61 -22.8 206.7 -21.61Q208.79 -20.42 210 -18.14Q211.21 -15.87 211.29 -12.63L210.27 -12.63L210.27 -22.1L214.08 -22.1L214.08 8.2ZM202.77 -3.53Q204.61 -3.53 206.11 -4.35Q207.6 -5.17 208.53 -6.74Q209.45 -8.32 209.45 -10.45L209.45 -12.22Q209.45 -14.31 208.51 -15.78Q207.56 -17.26 206.05 -18.04Q204.53 -18.82 202.77 -18.82Q200.72 -18.82 199.18 -17.86Q197.64 -16.89 196.78 -15.15Q195.92 -13.41 195.92 -11.11Q195.92 -8.86 196.8 -7.13Q197.68 -5.41 199.22 -4.47Q200.76 -3.53 202.77 -3.53Z M227.85 0.7Q223.99 0.7 221.88 -1.84Q219.77 -4.39 219.77 -9.31L219.77 -22.1L224.61 -22.1L224.61 -8.65Q224.61 -6.35 225.88 -5.02Q227.15 -3.69 229.32 -3.69Q231.54 -3.69 232.93 -5.1Q234.33 -6.52 234.33 -8.98L234.33 -22.1L239.16 -22.1L239.16 0L235.35 0L235.35 -9.43L235.8 -9.43Q235.8 -6.11 234.94 -3.87Q234.08 -1.64 232.38 -0.47Q230.68 0.7 228.05 0.7Z M246.52 0L246.52 -22.1L251.32 -22.1L251.32 0ZM243.28 -18.41L243.28 -22.1L251.32 -22.1L251.32 -18.41ZM248.08 -25.17Q246.6 -25.17 245.89 -25.95Q245.17 -26.73 245.17 -27.96Q245.17 -29.15 245.89 -29.95Q246.6 -30.75 248.08 -30.75Q249.6 -30.75 250.32 -29.95Q251.03 -29.15 251.03 -27.96Q251.03 -26.73 250.32 -25.95Q249.6 -25.17 248.08 -25.17Z M256.18 0L256.18 -4.47L267.62 -18.2L267.62 -17.55L266.88 -18.61L267.49 -18.33L256.06 -18.33L256.06 -22.1L272.37 -22.1L272.37 -17.63L260.89 -3.89L260.89 -4.47L261.71 -3.36L261.1 -3.77L272.91 -3.77L272.91 0Z " fill="#EDEFF4"></path></g></svg>