<svg xmlns="http://www.w3.org/2000/svg" viewBox="-14 -14 783.94 178" width="783.94" height="178"><svg x="0" y="0" width="150" height="150" viewBox="0 0 160 160" overflow="visible"><rect width="160" height="160" rx="36" fill="#490086"></rect><rect x="22" y="67" width="116" height="34" rx="17" fill="#fff" opacity="0.18"></rect><circle cx="45" cy="52" r="11" fill="none" stroke="#fff" stroke-width="5" opacity="0.82"></circle><rect x="66" y="45.5" width="58" height="13" rx="6.5" fill="#fff" opacity="0.45"></rect><circle cx="45" cy="84" r="13.5" fill="#fff"></circle><circle cx="45" cy="84" r="6" fill="#490086"></circle><rect x="66" y="77.5" width="58" height="13" rx="6.5" fill="#fff"></rect><circle cx="45" cy="116" r="11" fill="none" stroke="#fff" stroke-width="5" opacity="0.82"></circle><rect x="66" y="109.5" width="58" height="13" rx="6.5" fill="#fff" opacity="0.45"></rect><circle cx="124" cy="124" r="27" fill="#490086"></circle><circle cx="124" cy="124" r="21" fill="#fff"></circle><path d="M124 110 L127.53 119.15 L137.32 119.67 L129.71 125.85 L132.23 135.33 L124 130 L115.77 135.33 L118.29 125.85 L110.68 119.67 L120.47 119.15 Z" fill="#490086"></path></svg><g transform="translate(194,97.64)"><path d="M22.85 1.43Q13.69 1.43 8.61 -2.48Q3.53 -6.38 3.28 -13.19L12.35 -13.19Q12.52 -10.67 14.95 -8.57Q17.39 -6.47 22.93 -6.47Q27.64 -6.47 30.32 -8.32Q33.01 -10.16 33.01 -12.94Q33.01 -15.46 31 -16.93Q28.98 -18.4 24.36 -18.82L19.91 -19.32Q12.94 -20.08 8.86 -23.39Q4.79 -26.71 4.79 -32.51Q4.79 -37.04 7.06 -40.15Q9.32 -43.26 13.31 -44.94Q17.3 -46.62 22.51 -46.62Q30.58 -46.62 35.53 -43.05Q40.49 -39.48 40.66 -32.59L31.58 -32.59Q31.5 -35.11 29.19 -36.92Q26.88 -38.72 22.51 -38.72Q18.31 -38.72 16.09 -37.04Q13.86 -35.36 13.86 -32.76Q13.86 -30.41 15.54 -29.06Q17.22 -27.72 21 -27.3L25.45 -26.88Q33.1 -26.04 37.59 -22.64Q42.08 -19.24 42.08 -13.19Q42.08 -8.82 39.65 -5.54Q37.21 -2.27 32.89 -0.42Q28.56 1.43 22.85 1.43Z M69.68 0.59Q64.05 0.59 60.19 -0.97Q56.32 -2.52 54.31 -6.22Q52.29 -9.91 52.29 -16.21L52.37 -58.46L61.7 -58.46L61.7 -15.37Q61.7 -11.84 63.59 -9.95Q65.48 -8.06 68.92 -8.06L76.48 -8.06L76.48 0.59ZM44.81 -37.88L44.81 -45.28L76.48 -45.28L76.48 -37.88Z M112.56 0L112.56 -13.52L110.96 -13.52L110.96 -28.73Q110.96 -33.01 108.78 -35.15Q106.6 -37.3 102.31 -37.3Q99.96 -37.3 97.1 -37.21Q94.25 -37.13 91.48 -37.04Q88.7 -36.96 86.6 -36.79L86.6 -45.28Q88.54 -45.44 90.76 -45.57Q92.99 -45.7 95.38 -45.78Q97.78 -45.86 99.96 -45.86Q106.85 -45.86 111.38 -44.1Q115.92 -42.34 118.15 -38.51Q120.37 -34.69 120.37 -28.31L120.37 0ZM97.86 1.18Q92.9 1.18 89.21 -0.55Q85.51 -2.27 83.5 -5.59Q81.48 -8.9 81.48 -13.52Q81.48 -18.4 83.79 -21.59Q86.1 -24.78 90.38 -26.38Q94.67 -27.97 100.63 -27.97L111.97 -27.97L111.97 -21.5L100.38 -21.5Q95.93 -21.5 93.58 -19.36Q91.22 -17.22 91.22 -13.78Q91.22 -10.33 93.58 -8.27Q95.93 -6.22 100.38 -6.22Q102.98 -6.22 105.34 -7.18Q107.69 -8.15 109.24 -10.42Q110.8 -12.68 110.96 -16.8L113.48 -13.52Q113.06 -8.74 111.17 -5.5Q109.28 -2.27 105.97 -0.55Q102.65 1.18 97.86 1.18Z M132.32 0L132.32 -45.28L140.22 -45.28L140.22 -26.29L139.88 -26.29Q139.88 -36.12 144.17 -40.95Q148.45 -45.78 156.85 -45.78L158.45 -45.78L158.45 -37.04L155.42 -37.04Q149.04 -37.04 145.64 -33.68Q142.23 -30.32 142.23 -24.02L142.23 0Z M165.96 0L165.96 -61.32L175.88 -61.32L175.88 0ZM160 -53.76L160 -61.32L175.88 -61.32L175.88 -53.76Z M190.79 0L190.79 -45.28L200.61 -45.28L200.61 0ZM184.15 -37.72L184.15 -45.28L200.61 -45.28L200.61 -37.72ZM193.98 -51.58Q190.95 -51.58 189.48 -53.17Q188.01 -54.77 188.01 -57.29Q188.01 -59.72 189.48 -61.36Q190.95 -63 193.98 -63Q197.09 -63 198.56 -61.36Q200.03 -59.72 200.03 -57.29Q200.03 -54.77 198.56 -53.17Q197.09 -51.58 193.98 -51.58Z M230.81 17.72Q227.62 17.72 224.34 17.47Q221.07 17.22 218.21 16.8L218.21 8.48Q221.24 8.9 224.6 9.2Q227.96 9.49 230.98 9.49Q236.86 9.49 240.43 7.98Q244 6.47 245.64 3.32Q247.28 0.17 247.28 -4.79L247.28 -13.61L249.88 -19.66Q249.63 -13.1 247.15 -8.65Q244.67 -4.2 240.56 -1.93Q236.44 0.34 231.32 0.34Q226.61 0.34 222.75 -1.43Q218.88 -3.19 216.11 -6.34Q213.34 -9.49 211.79 -13.69Q210.23 -17.89 210.23 -22.6L210.23 -24.19Q210.23 -28.98 211.83 -33.1Q213.42 -37.21 216.28 -40.28Q219.14 -43.34 223.08 -45.02Q227.03 -46.7 231.82 -46.7Q237.45 -46.7 241.69 -44.31Q245.93 -41.92 248.33 -37.3Q250.72 -32.68 250.97 -26.04L248.79 -25.79L248.79 -45.28L256.6 -45.28L256.6 -5.38Q256.6 2.86 253.95 7.94Q251.31 13.02 245.64 15.37Q239.97 17.72 230.81 17.72ZM233.75 -8.4Q237.45 -8.4 240.47 -10.04Q243.5 -11.68 245.34 -14.74Q247.19 -17.81 247.19 -22.09L247.19 -25.54Q247.19 -29.74 245.3 -32.63Q243.41 -35.53 240.39 -37Q237.36 -38.47 233.84 -38.47Q229.8 -38.47 226.7 -36.62Q223.59 -34.78 221.87 -31.37Q220.14 -27.97 220.14 -23.44Q220.14 -18.82 221.91 -15.41Q223.67 -12.01 226.74 -10.21Q229.8 -8.4 233.75 -8.4Z M268.76 0L268.76 -61.32L278.67 -61.32L278.67 -25.12L276.65 -25.12Q276.65 -31.84 278.38 -36.67Q280.1 -41.5 283.67 -44.06Q287.24 -46.62 292.7 -46.62L293.12 -46.62Q301.1 -46.62 305.17 -41.24Q309.25 -35.87 309.25 -25.79L309.25 0L299.33 0L299.33 -27.22Q299.33 -32.09 296.56 -34.86Q293.79 -37.63 289.34 -37.63Q284.55 -37.63 281.61 -34.44Q278.67 -31.25 278.67 -26.12L278.67 0Z M339.82 0.59Q334.19 0.59 330.33 -0.97Q326.47 -2.52 324.45 -6.22Q322.43 -9.91 322.43 -16.21L322.52 -58.46L331.84 -58.46L331.84 -15.37Q331.84 -11.84 333.73 -9.95Q335.62 -8.06 339.07 -8.06L346.63 -8.06L346.63 0.59ZM314.96 -37.88L314.96 -45.28L346.63 -45.28L346.63 -37.88Z M351.62 -19.24L351.62 -27.8L384.3 -27.8L384.3 -19.24Z " fill="#490086"></path><path d="M428.78 16.8L428.78 -13.44L432.05 -19.32Q431.89 -12.35 429.32 -7.73Q426.76 -3.11 422.56 -0.8Q418.36 1.51 413.15 1.51Q408.37 1.51 404.38 -0.34Q400.39 -2.18 397.53 -5.42Q394.67 -8.65 393.12 -12.89Q391.57 -17.14 391.57 -22.01L391.57 -23.6Q391.57 -28.48 393.12 -32.63Q394.67 -36.79 397.61 -39.98Q400.55 -43.18 404.59 -44.94Q408.62 -46.7 413.49 -46.7Q419.2 -46.7 423.49 -44.27Q427.77 -41.83 430.25 -37.17Q432.73 -32.51 432.89 -25.87L430.79 -25.87L430.79 -45.28L438.61 -45.28L438.61 16.8ZM415.42 -7.22Q419.2 -7.22 422.27 -8.9Q425.33 -10.58 427.22 -13.82Q429.11 -17.05 429.11 -21.42L429.11 -25.03Q429.11 -29.32 427.18 -32.34Q425.25 -35.36 422.14 -36.96Q419.03 -38.56 415.42 -38.56Q411.22 -38.56 408.07 -36.58Q404.92 -34.61 403.16 -31.04Q401.39 -27.47 401.39 -22.76Q401.39 -18.14 403.2 -14.62Q405.01 -11.09 408.16 -9.16Q411.31 -7.22 415.42 -7.22Z M466.81 1.43Q458.91 1.43 454.59 -3.78Q450.26 -8.99 450.26 -19.07L450.26 -45.28L460.17 -45.28L460.17 -17.72Q460.17 -13.02 462.78 -10.29Q465.38 -7.56 469.83 -7.56Q474.37 -7.56 477.23 -10.46Q480.08 -13.36 480.08 -18.4L480.08 -45.28L489.99 -45.28L489.99 0L482.18 0L482.18 -19.32L483.11 -19.32Q483.11 -12.52 481.34 -7.94Q479.58 -3.36 476.09 -0.97Q472.61 1.43 467.23 1.43Z M505.07 0L505.07 -45.28L514.9 -45.28L514.9 0ZM498.44 -37.72L498.44 -45.28L514.9 -45.28L514.9 -37.72ZM508.26 -51.58Q505.24 -51.58 503.77 -53.17Q502.3 -54.77 502.3 -57.29Q502.3 -59.72 503.77 -61.36Q505.24 -63 508.26 -63Q511.37 -63 512.84 -61.36Q514.31 -59.72 514.31 -57.29Q514.31 -54.77 512.84 -53.17Q511.37 -51.58 508.26 -51.58Z M524.85 0L524.85 -9.16L548.29 -37.3L548.29 -35.95L546.78 -38.14L548.04 -37.55L524.6 -37.55L524.6 -45.28L558.03 -45.28L558.03 -36.12L534.51 -7.98L534.51 -9.16L536.19 -6.89L534.93 -7.73L559.13 -7.73L559.13 0Z " fill="#13161f"></path></g></svg>