<svg xmlns="http://www.w3.org/2000/svg" viewBox="0 0 923.4 146.1" role="img" aria-label="starlight-quiz">
  <g transform="translate(14.9,25.7) scale(1.9725)">
    <rect width="48" height="48" rx="10" fill="#7c3aed"/>
    <path d="M16 24.5l5 5 11-11" stroke="#fff" stroke-width="4" stroke-linecap="round" stroke-linejoin="round" fill="none"/>
  </g>
  <g transform="translate(148.5,107.7) scale(0.04883,-0.04883)" fill="#1f2937">
    <path transform="translate(0,0)" d="M1047 1085V813Q932 861 825.0 885.0Q718 909 623 909Q521 909 471.5 883.5Q422 858 422 805Q422 762 459.5 739.0Q497 716 594 705L657 696Q932 661 1027.0 581.0Q1122 501 1122 330Q1122 151 990.0 61.0Q858 -29 596 -29Q485 -29 366.5 -11.5Q248 6 123 41V313Q230 261 342.5 235.0Q455 209 571 209Q676 209 729.0 238.0Q782 267 782 324Q782 372 745.5 395.5Q709 419 600 432L537 440Q298 470 202.0 551.0Q106 632 106 797Q106 975 228.0 1061.0Q350 1147 602 1147Q701 1147 810.0 1132.0Q919 1117 1047 1085Z"/>
    <path transform="translate(1219,0)" d="M563 1438V1120H932V864H563V389Q563 311 594.0 283.5Q625 256 717 256H901V0H594Q382 0 293.5 88.5Q205 177 205 389V864H27V1120H205V1438Z"/>
    <path transform="translate(2198,0)" d="M674 504Q562 504 505.5 466.0Q449 428 449 354Q449 286 494.5 247.5Q540 209 621 209Q722 209 791.0 281.5Q860 354 860 463V504ZM1221 639V0H860V166Q788 64 698.0 17.5Q608 -29 479 -29Q305 -29 196.5 72.5Q88 174 88 336Q88 533 223.5 625.0Q359 717 649 717H860V745Q860 830 793.0 869.5Q726 909 584 909Q469 909 370.0 886.0Q271 863 186 817V1090Q301 1118 417.0 1132.5Q533 1147 649 1147Q952 1147 1086.5 1027.5Q1221 908 1221 639Z"/>
    <path transform="translate(3580,0)" d="M1004 815Q957 837 910.5 847.5Q864 858 817 858Q679 858 604.5 769.5Q530 681 530 516V0H172V1120H530V936Q599 1046 688.5 1096.5Q778 1147 903 1147Q921 1147 942.0 1145.5Q963 1144 1003 1139Z"/>
    <path transform="translate(4590,0)" d="M172 1556H530V0H172Z"/>
    <path transform="translate(5292,0)" d="M172 1120H530V0H172ZM172 1556H530V1264H172Z"/>
    <path transform="translate(5994,0)" d="M934 190Q860 92 771.0 46.0Q682 0 565 0Q360 0 226.0 161.5Q92 323 92 573Q92 824 226.0 984.5Q360 1145 565 1145Q682 1145 771.0 1099.0Q860 1053 934 954V1120H1294V113Q1294 -157 1123.5 -299.5Q953 -442 629 -442Q524 -442 426.0 -426.0Q328 -410 229 -377V-98Q323 -152 413.0 -178.5Q503 -205 594 -205Q770 -205 852.0 -128.0Q934 -51 934 113ZM698 887Q587 887 525.0 805.0Q463 723 463 573Q463 419 523.0 339.5Q583 260 698 260Q810 260 872.0 342.0Q934 424 934 573Q934 723 872.0 805.0Q810 887 698 887Z"/>
    <path transform="translate(7460,0)" d="M1298 682V0H938V111V520Q938 667 931.5 722.0Q925 777 909 803Q888 838 852.0 857.5Q816 877 770 877Q658 877 594.0 790.5Q530 704 530 551V0H172V1556H530V956Q611 1054 702.0 1100.5Q793 1147 903 1147Q1097 1147 1197.5 1028.0Q1298 909 1298 682Z"/>
    <path transform="translate(8918,0)" d="M563 1438V1120H932V864H563V389Q563 311 594.0 283.5Q625 256 717 256H901V0H594Q382 0 293.5 88.5Q205 177 205 389V864H27V1120H205V1438Z"/>
    <path transform="translate(9897,0)" d="M111 735H739V444H111Z"/>
    <path transform="translate(10747,0)" d="M698 887Q584 887 523.5 803.0Q463 719 463 559Q463 399 523.5 315.0Q584 231 698 231Q813 231 873.5 315.0Q934 399 934 559Q934 719 873.5 803.0Q813 887 698 887ZM934 162Q860 63 771.0 17.0Q682 -29 565 -29Q358 -29 225.0 135.5Q92 300 92 559Q92 818 225.0 981.5Q358 1145 565 1145Q682 1145 771.0 1099.0Q860 1053 934 954V1120H1294V-426H934Z"/>
    <path transform="translate(12213,0)" d="M160 436V1120H520V1008Q520 917 519.0 779.5Q518 642 518 596Q518 461 525.0 401.5Q532 342 549 315Q571 280 606.5 261.0Q642 242 688 242Q800 242 864.0 328.0Q928 414 928 567V1120H1286V0H928V162Q847 64 756.5 17.5Q666 -29 557 -29Q363 -29 261.5 90.0Q160 209 160 436Z"/>
    <path transform="translate(13671,0)" d="M172 1120H530V0H172ZM172 1556H530V1264H172Z"/>
    <path transform="translate(14373,0)" d="M117 1120H1094V870L504 256H1094V0H92V250L682 864H117Z"/>
  </g>
</svg>
